<?xml version="1.0" encoding="utf-8"?>
<!-- Generator: Adobe Illustrator 23.0.6, SVG Export Plug-In . SVG Version: 6.00 Build 0)  -->
<svg version="1.0" id="Capa_1" xmlns="http://www.w3.org/2000/svg" xmlns:xlink="http://www.w3.org/1999/xlink" x="0px" y="0px"
	 viewBox="0 0 496.06 184.25" style="enable-background:new 0 0 496.06 184.25;" xml:space="preserve">
<g>
	<g>
		<defs>
			<path id="SVGID_1_" d="M23.51,11.44c-3.53,0-6.39,2.55-6.39,5.7v149.34c0,3.14,2.85,5.7,6.39,5.7h447.96
				c3.52,0,6.38-2.56,6.38-5.7V17.14c0-3.15-2.85-5.7-6.38-5.7H23.51z"/>
		</defs>
		<clipPath id="SVGID_2_">
			<use xlink:href="#SVGID_1_"  style="overflow:visible;"/>
		</clipPath>
		<defs>
			<filter id="Adobe_OpacityMaskFilter" filterUnits="userSpaceOnUse" x="16.11" y="8.52" width="462.76" height="166.58">
				<feColorMatrix  type="matrix" values="1 0 0 0 0  0 1 0 0 0  0 0 1 0 0  0 0 0 1 0"/>
			</filter>
		</defs>
		<mask maskUnits="userSpaceOnUse" x="16.11" y="8.52" width="462.76" height="166.58" id="SVGID_3_">
			<g style="filter:url(#Adobe_OpacityMaskFilter);">
				<g>
					<defs>
						<polygon id="SVGID_4_" points="16.11,172.17 477.83,175.1 478.87,11.45 17.14,8.52 						"/>
					</defs>
					<clipPath id="SVGID_5_" style="clip-path:url(#SVGID_2_);">
						<use xlink:href="#SVGID_4_"  style="overflow:visible;"/>
					</clipPath>
					
						<radialGradient id="SVGID_6_" cx="88.9963" cy="649.2941" r="9.0613" gradientTransform="matrix(10.3341 0.0655 -0.0655 10.3318 -785.1815 -6623.9009)" gradientUnits="userSpaceOnUse">
						<stop  offset="0" style="stop-color:#000000"/>
						<stop  offset="1" style="stop-color:#FFFFFF"/>
					</radialGradient>
					<polygon style="clip-path:url(#SVGID_5_);fill:url(#SVGID_6_);" points="15.06,175.09 478.85,178.03 479.93,8.53 16.13,5.59 
											"/>
				</g>
			</g>
		</mask>
		
			<radialGradient id="SVGID_7_" cx="88.9963" cy="649.2941" r="9.0613" gradientTransform="matrix(10.3341 0.0655 -0.0655 10.3318 -785.1815 -6623.9023)" gradientUnits="userSpaceOnUse">
			<stop  offset="0" style="stop-color:#A5B1A2"/>
			<stop  offset="1" style="stop-color:#ACB1A9"/>
		</radialGradient>
		<polygon style="clip-path:url(#SVGID_2_);mask:url(#SVGID_3_);fill:url(#SVGID_7_);" points="16.11,172.17 477.83,175.1 
			478.87,11.45 17.15,8.52 		"/>
	</g>
	<g>
		<defs>
			<rect id="SVGID_8_" x="7.09" y="2.08" width="481.89" height="180.09"/>
		</defs>
		<clipPath id="SVGID_9_">
			<use xlink:href="#SVGID_8_"  style="overflow:visible;"/>
		</clipPath>
		<path style="clip-path:url(#SVGID_9_);fill:none;stroke:#000000;stroke-width:3.8692;" d="M23.51,11.44h447.96
			c3.52,0,6.38,2.56,6.38,5.69v149.35c0,3.14-2.85,5.7-6.38,5.7H23.51c-3.52,0-6.38-2.56-6.38-5.7V17.13
			C17.13,13.99,19.98,11.44,23.51,11.44z"/>
		<path style="clip-path:url(#SVGID_9_);" d="M17.78,129.45h11.8c14.74,23.18,33.75,36.4,64.87,36.15
			c31.13-0.24,52.54-15.18,65.42-36.15l316.8,0.15l-0.04,36.22l-7.18,5.8H24.97l-6.5-5.46L17.78,129.45z"/>
		<path style="clip-path:url(#SVGID_9_);fill:none;stroke:#000000;stroke-width:3.8692;" d="M17.78,129.45h11.8
			c14.74,23.18,33.75,36.4,64.87,36.15c31.13-0.24,52.54-15.18,65.42-36.15l316.8,0.15l-0.04,36.22l-7.18,5.8H24.97l-6.5-5.46
			L17.78,129.45z"/>
		<path style="clip-path:url(#SVGID_9_);fill:#FFFFFF;" d="M156.47,89.37c0,34.29-27.8,62.09-62.09,62.09
			c-34.3,0-62.09-27.8-62.09-62.09c0-34.3,27.79-62.09,62.09-62.09C128.67,27.28,156.47,55.07,156.47,89.37"/>
		<path style="clip-path:url(#SVGID_9_);" d="M94.29,22.87c-18.22,0-34.25,6.74-46.65,19.31c-12.75,12.94-19.68,29.7-19.68,47.19
			c0,17.68,6.74,34.07,19.5,46.83c12.76,12.75,29.34,19.67,46.83,19.67s34.43-6.92,47.55-19.85c12.39-12.21,18.95-28.43,18.95-46.65
			c0-18.04-6.56-34.43-19.13-47C128.9,29.61,112.5,22.87,94.29,22.87 M94.47,34.89c14.94,0,28.24,5.65,38.63,16.04
			c10.2,10.19,15.67,23.68,15.67,38.44c0,14.94-5.28,28.06-15.49,38.08c-10.75,10.57-24.59,16.21-38.81,16.21
			c-14.39,0-27.87-5.65-38.26-16.03c-10.39-10.38-16.22-24.05-16.22-38.27c0-14.39,5.83-28.05,16.22-38.63
			C66.4,40.36,79.52,34.89,94.47,34.89"/>
		<path style="clip-path:url(#SVGID_9_);" d="M93.61,78.32c-3.76-6.85-10.17-9.58-17.61-9.58c-10.83,0-19.45,7.66-19.45,20.62
			c0,13.19,8.1,20.63,19.82,20.63c7.51,0,13.92-4.13,17.45-10.38l-8.25-4.2c-1.85,4.42-4.64,5.74-8.17,5.74
			c-6.12,0-8.92-5.08-8.92-11.79c0-6.7,2.36-11.78,8.92-11.78c1.77,0,5.3,0.95,7.36,5.37L93.61,78.32z"/>
		<path style="clip-path:url(#SVGID_9_);" d="M131.97,78.32c-3.76-6.85-10.17-9.58-17.61-9.58c-10.83,0-19.45,7.66-19.45,20.62
			c0,13.19,8.1,20.63,19.82,20.63c7.51,0,13.92-4.13,17.45-10.38l-8.25-4.2c-1.85,4.42-4.64,5.74-8.17,5.74
			c-6.12,0-8.92-5.08-8.92-11.79c0-6.7,2.36-11.78,8.92-11.78c1.77,0,5.3,0.95,7.36,5.37L131.97,78.32z"/>
		<g style="clip-path:url(#SVGID_9_);enable-background:new    ;">
			<g>
				<defs>
					<rect id="SVGID_10_" x="198.47" y="132.72" width="119.09" height="44"/>
				</defs>
				<clipPath id="SVGID_11_">
					<use xlink:href="#SVGID_10_"  style="overflow:visible;"/>
				</clipPath>
				<g style="clip-path:url(#SVGID_11_);">
					<defs>
						<rect id="SVGID_12_" x="198.47" y="132.71" width="119.09" height="44"/>
					</defs>
					<clipPath id="SVGID_13_">
						<use xlink:href="#SVGID_12_"  style="overflow:visible;"/>
					</clipPath>
					<g style="clip-path:url(#SVGID_13_);enable-background:new    ;">
						<g>
							<defs>
								<rect id="SVGID_14_" x="198.47" y="132.72" width="119.09" height="44"/>
							</defs>
							<clipPath id="SVGID_15_">
								<use xlink:href="#SVGID_14_"  style="overflow:visible;"/>
							</clipPath>
							<g style="clip-path:url(#SVGID_15_);">
								<defs>
									<rect id="SVGID_16_" x="198.47" y="132.71" width="119.09" height="44"/>
								</defs>
								<clipPath id="SVGID_17_">
									<use xlink:href="#SVGID_16_"  style="overflow:visible;"/>
								</clipPath>
								<g style="clip-path:url(#SVGID_17_);">
									<path style="fill:#FFFFFF;" d="M201.27,137.78h10.93c2.16,0,3.78,0.08,4.84,0.25c1.06,0.17,2.01,0.52,2.85,1.05
										c0.84,0.53,1.54,1.24,2.1,2.13s0.84,1.88,0.84,2.98c0,1.2-0.34,2.29-1.03,3.29s-1.63,1.75-2.81,2.25
										c1.67,0.45,2.95,1.22,3.84,2.31c0.9,1.09,1.34,2.37,1.34,3.85c0,1.16-0.29,2.29-0.87,3.39c-0.58,1.1-1.37,1.97-2.37,2.63
										c-1,0.66-2.23,1.06-3.7,1.21c-0.92,0.09-3.14,0.15-6.66,0.17h-9.31V137.78z M206.79,142.03v5.9h3.62
										c2.15,0,3.49-0.03,4.01-0.09c0.94-0.1,1.69-0.41,2.23-0.91c0.54-0.5,0.81-1.17,0.81-1.99c0-0.79-0.23-1.43-0.7-1.92
										c-0.47-0.49-1.16-0.79-2.08-0.9c-0.55-0.06-2.12-0.09-4.72-0.09H206.79z M206.79,152.17V159h5.11
										c1.99,0,3.25-0.05,3.79-0.16c0.82-0.14,1.49-0.48,2-1.02c0.52-0.54,0.77-1.26,0.77-2.17c0-0.77-0.2-1.42-0.6-1.95
										c-0.4-0.53-0.97-0.92-1.72-1.17c-0.75-0.24-2.38-0.37-4.9-0.37H206.79z"/>
									<path style="fill:#FFFFFF;" d="M236.17,163.29v-10.74l-10.01-14.78h6.47l6.43,10.09l6.3-10.09h6.36l-10.05,14.81v10.7
										H236.17z"/>
									<path style="fill:#FFFFFF;" d="M264.82,163.29v-25.51h5.37l11.19,17.04v-17.04h5.13v25.51h-5.54l-11.02-16.64v16.64H264.82
										z"/>
									<path style="fill:#FFFFFF;" d="M309.99,153.91l5.35,1.58c-0.82,2.78-2.19,4.85-4.09,6.2s-4.33,2.03-7.26,2.03
										c-3.63,0-6.61-1.16-8.95-3.47c-2.34-2.31-3.51-5.48-3.51-9.49c0-4.25,1.17-7.54,3.52-9.89s5.44-3.52,9.27-3.52
										c3.34,0,6.06,0.92,8.15,2.77c1.24,1.09,2.18,2.66,2.8,4.7l-5.46,1.22c-0.32-1.32-1-2.37-2.02-3.13
										c-1.03-0.77-2.27-1.15-3.74-1.15c-2.03,0-3.67,0.68-4.93,2.04c-1.26,1.36-1.89,3.56-1.89,6.6c0,3.23,0.62,5.52,1.86,6.89
										c1.24,1.37,2.86,2.05,4.85,2.05c1.47,0,2.73-0.44,3.79-1.31S309.53,155.78,309.99,153.91z"/>
								</g>
							</g>
						</g>
					</g>
				</g>
			</g>
		</g>
		<path style="clip-path:url(#SVGID_9_);" d="M415.28,24.43c-22.97,0.58-41.45,19.42-41.45,42.52c0,23.48,19.05,42.52,42.52,42.52
			c23.47,0,42.52-19.04,42.52-42.52c0-23.46-19.05-42.52-42.52-42.52C415.99,24.43,415.64,24.42,415.28,24.43 M415.23,31.74
			c0.38-0.01,0.74,0,1.12,0c19.44,0,35.21,15.78,35.21,35.21s-15.78,35.21-35.21,35.21c-19.44,0-35.21-15.78-35.21-35.21
			C381.14,47.9,396.32,32.34,415.23,31.74"/>
		<path style="clip-path:url(#SVGID_9_);fill:#FFFFFF;" d="M451.57,66.95c0,19.45-15.77,35.21-35.21,35.21
			c-19.45,0-35.21-15.77-35.21-35.21s15.77-35.21,35.21-35.21C435.8,31.74,451.57,47.51,451.57,66.95"/>
		<path style="clip-path:url(#SVGID_9_);" d="M401.45,56.9h31.31v7.68h-31.31V56.9z M401.45,70.78h31.31v7.68h-31.31V70.78z"/>
		<path style="clip-path:url(#SVGID_9_);" d="M225.34,24.43c-22.97,0.58-41.44,19.42-41.44,42.52c0,23.48,19.05,42.52,42.52,42.52
			s42.52-19.04,42.52-42.52c0-23.46-19.06-42.52-42.52-42.52C226.05,24.43,225.7,24.42,225.34,24.43 M225.29,31.74
			c0.37-0.01,0.74,0,1.12,0c19.44,0,35.21,15.78,35.21,35.21s-15.78,35.21-35.21,35.21c-19.44,0-35.21-15.78-35.21-35.21
			C191.2,47.9,206.38,32.34,225.29,31.74"/>
		<path style="clip-path:url(#SVGID_9_);fill:#FFFFFF;" d="M261.63,66.95c0,19.45-15.77,35.21-35.21,35.21s-35.21-15.77-35.21-35.21
			s15.77-35.21,35.21-35.21S261.63,47.51,261.63,66.95"/>
		<path style="clip-path:url(#SVGID_9_);fill-rule:evenodd;clip-rule:evenodd;" d="M231.97,45.64c0,3.07-2.48,5.55-5.55,5.55
			c-3.06,0-5.55-2.48-5.55-5.55c0-3.06,2.49-5.55,5.55-5.55C229.49,40.09,231.97,42.58,231.97,45.64"/>
		<path style="clip-path:url(#SVGID_9_);fill-rule:evenodd;clip-rule:evenodd;" d="M220.73,93.81h11.37V75.43h4.51
			c0,0,0-14.61,0-16.91c0-0.61,0.05-1.81-0.82-2.69c-0.88-0.88-2.07-0.82-2.69-0.82h-13.37c-0.63,0-1.82-0.05-2.69,0.82
			c-0.89,0.88-0.82,2.08-0.82,2.69v16.91h4.51V93.81z"/>
		<path style="clip-path:url(#SVGID_9_);" d="M320.2,24.43c-22.96,0.58-41.44,19.42-41.44,42.52c0,23.48,19.05,42.52,42.52,42.52
			c23.47,0,42.52-19.04,42.52-42.52c0-23.46-19.06-42.52-42.52-42.52C320.92,24.43,320.57,24.42,320.2,24.43z M320.16,31.74
			c0.38-0.01,0.74,0,1.12,0c19.44,0,35.21,15.78,35.21,35.21s-15.78,35.21-35.21,35.21c-19.44,0-35.21-15.78-35.21-35.21
			C286.07,47.9,301.25,32.34,320.16,31.74"/>
		<path style="clip-path:url(#SVGID_9_);fill:#FFFFFF;" d="M356.5,66.95c0,19.45-15.77,35.21-35.21,35.21
			c-19.45,0-35.21-15.77-35.21-35.21s15.77-35.21,35.21-35.21C340.73,31.74,356.5,47.51,356.5,66.95"/>
		<path style="clip-path:url(#SVGID_9_);" d="M312.86,75.91c2.74,3.83,11.1,4.1,13.96,2.48c1.06-0.6,1.32-2.32,1.32-3.49
			c0-0.81-0.22-1.43-0.63-1.89c-0.45-0.46-1.59-1.62-2.9-1.97c-6.67-1.72-11.28-3.87-13.09-5.43c-2.25-1.95-2.61-3.23-2.61-6.61
			c0-3.39,0.98-6.23,3.18-8.28c2.2-2.04,5.41-3.06,9.61-3.06c4.01,0,9.65,1.06,12.4,4.33l-4.59,4.99c-2.59-2.17-4.51-2.37-7.68-2.37
			c-1.99,0-3.03,0.29-3.88,0.86c-0.84,0.55-1.27,1.28-1.27,2.17c0,0.81,0.39,1.47,1.16,2c0.78,0.54,2.8,1.37,6.84,2.47
			c4.52,1.24,7.6,2.74,9.22,4.5c1.59,1.77,2.39,4.11,2.39,7.05c0,3.53-1.24,6.44-3.73,8.74c-2.46,2.29-5.5,4.08-9.87,4.08
			c-5.61,0-13.11-1.98-15.19-5.65"/>
		<polygon style="clip-path:url(#SVGID_9_);" points="357.62,77.73 354.42,84.74 286.5,54.14 289.69,47.12 		"/>
		<path style="clip-path:url(#SVGID_9_);" d="M319.11,50.64h4.32v-9.1h-4.32V50.64z M319.11,92.37h4.32v-8.18h-4.32V92.37z"/>
		<g style="clip-path:url(#SVGID_9_);enable-background:new    ;">
			<g>
				<defs>
					<rect id="SVGID_18_" x="389.29" y="132.91" width="55.54" height="44"/>
				</defs>
				<clipPath id="SVGID_19_">
					<use xlink:href="#SVGID_18_"  style="overflow:visible;"/>
				</clipPath>
				<g style="clip-path:url(#SVGID_19_);">
					<defs>
						<rect id="SVGID_20_" x="389.28" y="132.91" width="55.55" height="44"/>
					</defs>
					<clipPath id="SVGID_21_">
						<use xlink:href="#SVGID_20_"  style="overflow:visible;"/>
					</clipPath>
					<g style="clip-path:url(#SVGID_21_);enable-background:new    ;">
						<g>
							<defs>
								<rect id="SVGID_22_" x="389.29" y="132.91" width="55.54" height="44"/>
							</defs>
							<clipPath id="SVGID_23_">
								<use xlink:href="#SVGID_22_"  style="overflow:visible;"/>
							</clipPath>
							<g style="clip-path:url(#SVGID_23_);">
								<defs>
									<rect id="SVGID_24_" x="389.28" y="132.91" width="55.55" height="44"/>
								</defs>
								<clipPath id="SVGID_25_">
									<use xlink:href="#SVGID_24_"  style="overflow:visible;"/>
								</clipPath>
								<g style="clip-path:url(#SVGID_25_);">
									<path style="fill:#FFFFFF;" d="M392.12,163.49v-25.51h5.37l11.19,17.04v-17.04h5.13v25.51h-5.54l-11.02-16.64v16.64H392.12
										z"/>
									<path style="fill:#FFFFFF;" d="M419.78,137.98h10.09c2.28,0,4.01,0.16,5.2,0.49c1.6,0.44,2.98,1.22,4.12,2.35
										c1.14,1.13,2.01,2.5,2.61,4.13s0.9,3.64,0.9,6.03c0,2.1-0.28,3.91-0.84,5.43c-0.68,1.86-1.66,3.36-2.93,4.51
										c-0.96,0.87-2.25,1.55-3.88,2.04c-1.22,0.36-2.85,0.54-4.89,0.54h-10.39V137.98z M425.3,142.29v16.9h4.12
										c1.54,0,2.65-0.08,3.34-0.24c0.89-0.21,1.64-0.56,2.23-1.06c0.59-0.5,1.07-1.32,1.45-2.46c0.37-1.14,0.56-2.7,0.56-4.67
										s-0.19-3.49-0.56-4.54c-0.37-1.06-0.9-1.88-1.57-2.47c-0.67-0.59-1.52-0.99-2.56-1.2c-0.77-0.16-2.28-0.24-4.53-0.24H425.3
										z"/>
								</g>
							</g>
						</g>
					</g>
				</g>
			</g>
		</g>
	</g>
</g>
</svg>
